<svg id="Laag_1" data-name="Laag 1" xmlns="http://www.w3.org/2000/svg" viewBox="0 0 22.72 11.23"><defs><style>.cls-1{fill:#1d1d1b;}</style></defs><path class="cls-1" d="M8.06,15.3V12.47c0-.41,0-1.39,0-1.69-.11.29-.34.84-.53,1.28L6,15.48,4.45,12.06c-.19-.44-.42-1-.53-1.28,0,.3,0,1.28,0,1.69V15.3H2.45V7.6H3.92l1.59,3.49c.2.43.43,1,.52,1.28.1-.28.32-.84.52-1.28L8.08,7.6h1.5v7.7Z" transform="translate(-2.45 -7.6)"/><path class="cls-1" d="M16.62,15.3,16,13.58H13.23l-.6,1.72H11l2.92-7.7H15.4l2.9,7.7ZM15,10.72c-.15-.45-.31-.91-.38-1.2-.08.29-.23.75-.38,1.2l-.49,1.4H15.5Z" transform="translate(-2.45 -7.6)"/><path class="cls-1" d="M19.71,15.3V7.6H25V9.11H21.24v1.33h2.19v1.49H21.24v1.86h3.93V15.3Z" transform="translate(-2.45 -7.6)"/><path class="cls-1" d="M4.32,18.8H4V17.36c0,.06-.08.2-.13.32L3.4,18.83l-.48-1.15c0-.12-.11-.26-.13-.32s0,.24,0,.36V18.8H2.51v-2h.31l.45,1.08a3.61,3.61,0,0,1,.14.35l.14-.35L4,16.76h.33Z" transform="translate(-2.45 -7.6)"/><path class="cls-1" d="M6,18.8H5.67v-.16a.61.61,0,0,1-.42.19.49.49,0,0,1-.53-.52c0-.34.26-.49.61-.49a.83.83,0,0,1,.34.06v-.12a.26.26,0,0,0-.29-.26.74.74,0,0,0-.4.1l-.11-.23a.91.91,0,0,1,.52-.14c.34,0,.57.17.57.52Zm-.29-.44v-.22a.82.82,0,0,0-.35-.06c-.19,0-.31.08-.31.22s.09.26.29.26A.47.47,0,0,0,5.67,18.36Z" transform="translate(-2.45 -7.6)"/><path class="cls-1" d="M7.44,18.38c0,.33-.27.45-.57.45a1,1,0,0,1-.58-.2l.14-.22a.86.86,0,0,0,.44.15c.19,0,.28-.06.28-.17s-.14-.17-.35-.26-.45-.24-.45-.48.21-.42.52-.42a.87.87,0,0,1,.51.17l-.13.23a.7.7,0,0,0-.39-.13c-.15,0-.21.06-.21.14s0,.13.28.22S7.44,18.09,7.44,18.38Z" transform="translate(-2.45 -7.6)"/><path class="cls-1" d="M8.55,18.49l0,.27a.65.65,0,0,1-.29.07c-.22,0-.35-.13-.35-.41v-.88H7.67v-.27h.21v-.44l.3-.16v.6h.37v.27H8.18v.83c0,.14,0,.18.15.18A.38.38,0,0,0,8.55,18.49Z" transform="translate(-2.45 -7.6)"/><path class="cls-1" d="M10.13,18c0,.06,0,.11,0,.14h-1c0,.29.19.42.38.42a.61.61,0,0,0,.33-.12l.17.19a.69.69,0,0,1-.52.2c-.36,0-.66-.29-.66-.8s.28-.8.67-.8S10.13,17.59,10.13,18Zm-.3-.11c0-.21-.12-.38-.36-.38s-.32.14-.35.38Z" transform="translate(-2.45 -7.6)"/><path class="cls-1" d="M11.39,17.3l-.07.28a.52.52,0,0,0-.23,0c-.19,0-.3.13-.3.39v.88h-.3V17.27h.3v.14a.43.43,0,0,1,.35-.18A.41.41,0,0,1,11.39,17.3Z" transform="translate(-2.45 -7.6)"/><path class="cls-1" d="M14.18,18.8h-.33l-.17-.49h-.8l-.17.49h-.32l.73-2h.32ZM13.59,18l-.16-.47c0-.15-.13-.38-.15-.47l-.15.47L13,18Z" transform="translate(-2.45 -7.6)"/><path class="cls-1" d="M15.43,17.3l-.08.28a.49.49,0,0,0-.23,0c-.18,0-.29.13-.29.39v.88h-.3V17.27h.3v.14a.41.41,0,0,1,.34-.18A.43.43,0,0,1,15.43,17.3Z" transform="translate(-2.45 -7.6)"/><path class="cls-1" d="M16.52,18.49l0,.27a.59.59,0,0,1-.29.07c-.21,0-.34-.13-.34-.41v-.88h-.22v-.27h.22v-.44l.29-.16v.6h.37v.27h-.37v.83c0,.14,0,.18.15.18A.38.38,0,0,0,16.52,18.49Z" transform="translate(-2.45 -7.6)"/><path class="cls-1" d="M19.09,18.8H17.75v-2h1.3v.29h-1v.51h.58v.3h-.58v.64h1Z" transform="translate(-2.45 -7.6)"/><path class="cls-1" d="M20.58,17.27l-.53,1.53h-.3l-.54-1.53h.31l.27.83c.05.15.1.29.12.37a2.35,2.35,0,0,1,.1-.37l.26-.83Z" transform="translate(-2.45 -7.6)"/><path class="cls-1" d="M22.07,18v.14h-1c0,.29.2.42.39.42a.55.55,0,0,0,.32-.12l.18.19a.69.69,0,0,1-.52.2c-.36,0-.66-.29-.66-.8s.27-.8.67-.8S22.07,17.59,22.07,18Zm-.3-.11c0-.21-.11-.38-.35-.38s-.32.14-.35.38Z" transform="translate(-2.45 -7.6)"/><path class="cls-1" d="M23.66,18.8h-.3v-.87c0-.31-.11-.42-.31-.42s-.31.14-.31.39v.9h-.3V17.27h.3v.14a.45.45,0,0,1,.38-.18c.35,0,.54.24.54.69Z" transform="translate(-2.45 -7.6)"/><path class="cls-1" d="M24.83,18.49l0,.27a.66.66,0,0,1-.3.07c-.21,0-.34-.13-.34-.41v-.88H24v-.27h.21v-.44l.3-.16v.6h.37v.27h-.37v.83c0,.14,0,.18.15.18A.38.38,0,0,0,24.83,18.49Z" transform="translate(-2.45 -7.6)"/></svg>